# xmcd
#
# Track frame offsets:
#	150
#	15046
#	28201
#	44786
#	61025
#	77650
#	92292
#	108043
#	119660
#	132990
#	154157
#	175344
#	189883
#
# Disc length: 2792 seconds
#
# Revision: 0
# Processed by: cddbd v1.5.1PL2 Copyright (c) Steve Scherf et al.
# Submitted via: dBpowerAMP V4.0
#
DISCID=990ae60d
DTITLE=Glwadys Ann - Glwadys Ann
DYEAR=2006
DGENRE=Country
TTITLE0=I Feel Lucky
TTITLE1=Two More Bottles Of Wine
TTITLE2=Tell Me I'm Crazy
TTITLE3=Cafe Chez Tom
TTITLE4=Piece Of My Heart
TTITLE5=Where We Go From  Here
TTITLE6=Sur Mon Chemin
TTITLE7=Devil In Disguise
TTITLE8=Let'er Rip
TTITLE9=You're So Vain
TTITLE10=Tu Serais
TTITLE11=I Feel In Love
TTITLE12=Stand By Your Man
EXTD=cse
EXTT0=
EXTT1=
EXTT2=
EXTT3=
EXTT4=
EXTT5=
EXTT6=
EXTT7=
EXTT8=
EXTT9=
EXTT10=
EXTT11=
EXTT12=
PLAYORDER=
